<?xml version="1.0" encoding="UTF-8"?>
<svg class="img-fluid" width="1504" height="704" cursor="move" style="max-height:none;transform-origin:50% 50%;transform:matrix(1, 0, 0, 1, 0, 0);transition:transform 200ms ease-in-out" version="1.1" viewBox="0 0 15040 7040" xmlns="http://www.w3.org/2000/svg">
<g style="transform:none">
<g style="transform:none">
<path d="m1466 6963c-3-43-8-130-11-193-4-63-14-194-22-290-9-96-17-191-17-210l-1-35 65-9c36-4 79-9 95-10l30-1-3 150c-3 130 14 432 34 618l7 57h-86-85l-6-77z"/>
<path d="m1783 6593c-1-247-3-475-5-508l-3-60h95 95l-3 60c-1 33-5 261-8 508l-5 447h-82-82l-2-447z"/>
<path d="m2054 6928c21-361 26-467 25-598 0-80-4-170-8-200-11-94-13-92 96-88 91 3 96 2 104-19 8-22 7-23-60-23-73 0-126-14-134-34-3-7-1-33 4-57 10-50 49-529 49-601 0-34-5-50-17-57-17-10-16-12 4-28 18-15 22-30 24-94 3-65 0-80-20-107-19-27-20-33-7-38 8-3 20-3 25 1 7 4 11-55 13-177l3-183 52-3c67-4 130 13 138 37 3 10 1 38-4 62s-17 115-27 203l-17 158 32 32 33 31-4-70c-2-55 0-70 11-70 20 0 72 147 73 207 1 26 2 48 3 48s19-27 40-60 45-60 52-60c37 0-10 143-63 189-32 29-36 37-44 114-6 46-14 107-20 136-15 80-12 82 19 16 15-33 53-102 85-153 79-130 102-180 126-263 28-103 28-103-34-122-51-17-155-84-185-120-11-14-11-18 3-23 22-8 134 31 190 66 57 37 66 37 66 3 0-18-12-36-40-61-58-49-182-253-165-271 4-3 38 27 77 68l71 74-7-79c-4-44-9-96-12-116-5-30-2-38 9-38 19 0 75 139 90 225 6 33 11 61 12 62 1 2 26-20 56-48 65-62 124-102 139-97 17 5-96 153-163 214-75 69-78 100-4 44 50-37 97-52 97-31 0 18-110 129-134 135-19 5-25 17-39 78-9 41-19 81-23 91-5 13-1 17 16 17 19 0 16 6-24 53l-46 52 26 5 27 5-39 25c-35 22-124 140-124 163 0 18 105-5 133-29 38-32 67-39 164-39 46 0 83-3 83-6 0-4-7-12-16-20-9-7-29-39-45-71-21-42-35-58-50-58h-20l20-26c12-15 21-32 21-38 0-34 101-96 155-96 22 0 17 8-47 62l-73 63 30 5c18 3 25 8 18 13s-3 16 15 36c32 34 195 302 188 308-7 7-119-81-151-119l-27-32-46 18c-26 10-62 24-80 31-58 21-57 29 7 69 78 48 187 139 172 144-16 5-106-26-175-60-60-30-92-31-83 0 26 85 47 165 44 168-6 6-103-128-126-173-24-48-55-58-65-20-6 27-85 151-91 145-4-4 7-85 20-145 4-18 1-23-14-23-22 0-49 67-104 260-92 322-101 388-113 863l-7 257h-85-85l7-112zm269-1080c49-155 111-477 96-493-3-3-33-8-66-11l-60-7-6 48c-7 51-10 575-3 575 2 0 20-51 39-112zm97-558c0-12-103-90-118-90-7 0-12 11-12 23 0 19 8 26 38 35 20 6 46 18 57 26 23 18 35 20 35 6z"/>
<path d="m4615 6658c0-262-4-413-13-478-7-52-14-104-15-115-2-19 4-20 121-21l124-2-5 42c-25 192-29 298-25 614l5 342h-97-96l1-382z"/>
<path d="m6996 6988c-4-29-13-136-21-238-20-233-32-332-51-394-8-28-11-53-7-57 5-4 52-10 106-13l97-7-6 108c-5 98 8 285 42 596l7 57h-81-81l-5-52z"/>
<path d="m7300 7027c0-30-30-482-40-602-6-71-18-159-26-194-12-53-12-67-2-77 8-7 60-14 127-17l113-6-6 41c-4 22-7 124-6 227 0 174 7 281 30 491 6 47 10 100 10 118v32h-100c-76 0-100-3-100-13z"/>
<path d="m7604 6707c-1-182-8-404-15-492s-13-173-13-190l-1-30 117-5c73-4 122-10 130-18 9-9-11-12-98-12-145 0-149-3-133-95 12-64 12-69-6-79-10-6-47-32-82-58-61-46-87-57-96-40-7 12 22 252 38 315 8 32 15 64 15 71 0 16-102 46-156 46-21 0-50-6-63-13-24-12-24-13-22-167 3-244-27-645-56-744-8-28-15-62-16-76-2-23 2-25 43-27 25-2 78-8 117-15 72-12 73-12 123-74 27-34 75-79 105-100 73-49 70-67-14-114-35-20-64-40-65-45 0-6 26-11 59-13 39-2 63-8 68-18 6-11 30-14 102-14 144 0 169 20 141 114l-15 49 41 76c23 42 42 77 43 78 1 2 23-18 50-42l49-46-12-122c-7-67-15-139-18-159l-6-38h38c56 0 84-10 84-29 0-13-9-15-51-12-28 1-55-1-59-5-5-5-5-91-1-191 10-250 11-244-52-266-86-31-126-41-133-34-11 11 15 388 33 482 16 85 16 88-2 101-20 15-131 18-200 6-32-6-40-12-38-27 1-11 6-60 11-110 6-49 13-138 16-197 5-107 5-108-18-108-25 0-156 108-167 137-3 10-12 58-19 106-7 54-16 85-21 80s-12-61-16-124c-7-130 7-251 41-369 22-76 22-80 5-80-11 0-41 16-69 36-49 35-50 37-50 88 0 170 51 743 75 841 21 88 20 95-15 95-17 0-47 7-67 15-48 20-96 19-123-3-22-18-22-21-11-103 8-60 8-135 1-264-11-194-39-527-46-534-7-8-48 16-116 68-38 27-68 46-68 40 0-17 68-114 118-170 51-56 53-70 27-156-17-56-12-58 127-67l107-7 6 48 55-25 55-24-48-25c-46-23-53-24-117-14-101 16-187 14-193-3-3-8-3-46 0-84 9-106-6-282-23-282-8 0-20 11-26 25s-14 25-18 25c-12 0 2-102 24-180 26-91 24-170-4-170-18 0-125 75-150 105-7 8-17 15-22 15-18 0 65-140 119-200l56-61-7-79c-4-43-16-120-27-172l-19-93 21-17c12-10 38-18 59-18 20 0 58-3 83-6 43-6 48-10 86-69 53-82 138-159 197-179 27-9 80-16 121-16h73v-33c0-18-5-60-11-92-10-53-9-60 7-72 24-18 184-18 208 0 18 13 18 16 2 78-12 46-19 125-23 277l-6 213 24 17c13 9 50 41 82 71l57 54v-68c0-38-5-120-12-183-9-96-9-115 3-123 8-5 48-8 89-7l75 3-4 30c-2 17-3 146-3 288v257l56 75c65 85 86 90 86 18 0-24-5-64-11-89-16-64-7-70 78-49 42 11 87 15 119 12 69-7 76 3 55 67-10 28-20 67-23 86-6 35-5 35 61 67 36 17 92 55 123 83l57 51 5-33c5-32 44-473 49-553 2-39 3-40 40-43 40-3 133 13 156 27 12 8 9 41-22 213-37 203-67 417-67 470 0 19 6 30 18 34 9 3 38 15 64 28l47 23 65-32c110-56 259-57 430-5 81 25 74 40-19 40-54 0-359 36-394 46-10 3-3 16 23 43 34 34 44 39 102 45 109 11 199 57 306 155 52 47 158 179 158 195 0 4-19-8-42-27-110-88-305-197-352-197-55 0-31 38 36 59 21 7 49 27 64 44 64 75 132 271 141 406l5 76-115-191c-64-105-123-215-132-245s-19-65-23-78-11-26-17-28-10 49-10 139c0 107-5 161-19 216-10 40-21 71-24 68s-15-65-28-138c-28-160-31-275-7-336 11-31 13-46 5-54-25-25-39 0-47 83-10 117-47 256-91 339-33 64-62 94-50 53 3-10 10-94 16-188 14-225 26-301 55-352l24-43-32-30c-48-45-54-40-54 48 0 113-43 244-103 312-12 14-19 20-15 13 3-7 10-84 15-171 7-119 14-173 29-213 26-68 26-69-4-69-18 0-28 8-36 27-5 15-13 134-16 265l-6 239-26-5c-14-3-58-10-98-16-40-7-77-18-84-26-9-12-7-35 10-112 27-120 49-270 57-382l7-86-84-39c-56-25-99-39-129-39l-45-1-8 56c-8 53-7 62 26 130 20 41 43 109 51 151 18 87 21 194 6 203-5 3-10 0-10-7 0-8-18-51-40-96-47-99-70-108-70-29 0 28-7 126-16 217-8 91-14 217-12 280l3 115-60-4c-115-9-168-6-172 7-3 8 8 12 39 12 51 0 140 23 172 43 21 14 23 13 51-30 29-47 118-119 174-143 38-15 46-41 38-121-6-52-4-60 13-69 33-18 210 22 210 47 0 4-9 32-20 61s-20 56-20 60c0 5 24 16 53 25 68 21 261 157 245 172-3 3-66-11-141-31-74-20-142-34-151-31-9 4-20 17-25 29-10 28-48 400-57 567l-7 124 86-66c48-37 118-81 156-99l69-33 7-60c13-116 47-161 162-219 61-30 161-56 218-55h40l-50 26c-106 54-315 240-315 279 0 23 16 16 43-20 21-26 40-37 91-51 90-24 320-17 418 14 90 29 94 41 16 41-38 0-105 11-163 27-115 31-251 37-328 14-34-10-51-11-59-3-13 13 12 27 67 37 66 12 152 51 243 111 81 55 222 178 222 194 0 9-202-79-327-143-100-51-117-45-90 30 9 27 21 75 27 107 11 65 14 253 4 243-4-4-21-51-39-104-42-131-110-273-129-273-10 0-17 13-20 38-17 115-37 194-64 252l-30 65-1-200c-1-110 3-215 8-233 10-32 9-32-26-32-39 0-68 18-160 98-44 37-63 61-63 77 0 13-5 27-11 31-11 7-159-13-195-27l-21-7 18-72c18-71 85-687 76-696-3-3-22-2-43 2-30 5-54 21-105 73-102 103-116 134-140 306-11 81-19 149-17 151s28-5 56-16c60-23 131-28 98-7-10 7-51 35-91 64-85 61-77 34-101 338-11 140-15 268-11 383l5 173-24 16c-31 20-30 37 2 52 28 12 28 14-2 91-16 38-18 79-19 275 0 127 4 348 8 493l8 262h-168-169l18-136c33-265 62-650 63-831v-182l30-8 29-8-29-28c-17-15-34-26-40-24-5 2-20 32-33 68-13 35-39 100-59 143l-35 79 4 463 4 464h-106-105l-1-333zm299-945c26-76 47-145 47-153s-27-26-59-41c-63-30-77-33-85-20-12 20 29 352 44 352 3 0 27-62 53-138zm-293-207c0-109-1-115-20-115-11 0-55 28-97 62-72 59-75 62-52 71 55 20 109 50 130 73 12 13 26 24 31 24 4 0 8-52 8-115zm365-46c6-32 3-38-29-62-32-25-55-65-109-189-10-22-24-38-33-38-15 0-16 10-11 75 6 85 34 139 116 228 48 52 54 51 66-14zm-457-159c3-8-136-65-142-59-3 2-2 50 1 107l6 103 66-72c36-40 67-75 69-79zm475 27c4-44 1-54-50-135-60-94-96-168-108-219-3-18-12-33-19-33-9 0-15 26-20 87l-7 86 46 44c31 30 60 74 91 140 25 52 49 91 54 87 4-5 10-31 13-57zm-390-264c-3-76-8-140-10-143-6-6-27 22-65 83-15 23-45 64-67 89l-41 46 48 12c26 6 63 20 82 30 59 32 59 33 53-117zm382-41c-3-3-17 6-31 20l-26 26 28 63 29 64 3-84c2-46 0-86-3-89zm-375-1067c0-37-5-47-40-79-22-20-49-36-60-36-18 0-20 7-20 78 0 42-7 108-15 147-8 38-15 73-15 77s34-27 75-69c70-70 75-79 75-118zm560-180c16-143 32-304 36-357 8-109 10-107-66-92-31 7-32 8-26 44 8 53-6 61-101 58l-78-3 1-30c0-16 4-65 7-107 6-72 5-78-12-78-13 0-34 27-70 90-51 90-59 114-42 125 6 3 5 20-3 43-7 20-16 54-20 76-7 37-6 38 16 32 13-3 49-6 81-6h57l-6-42c-9-54 9-68 92-68s92 10 83 86c-10 77-11 501-2 545l7 34 8-45c4-25 21-162 38-305zm-205 35c-7-168-9-180-26-180-28 0-84 25-124 56l-36 27 3 90 3 91 31 8c18 4 58 28 90 52 33 24 61 42 63 40s0-84-4-184zm-355-6c0-36 0-37-36-31-20 3-42 12-51 18-12 11-10 15 19 30 53 29 68 25 68-17zm-129-58c11-14 42-41 69-61 48-35 50-39 50-84 0-26-5-73-11-105-8-43-7-61 2-72s6-19-15-39c-31-29-48-65-71-155-9-36-37-122-62-192-39-110-48-128-67-128-12 0-27 9-34 20-11 18-10 25 8 50 38 53 52 111 56 230l4 115-34-70c-19-38-45-103-58-142-26-83-41-91-83-41-27 31-27 34-21 123 12 153 36 346 54 429l18 78 59 22c33 12 69 27 80 34 28 16 35 15 56-12zm126-734 6-259-33-6c-64-13-87-8-115 24-26 31-26 32-7 53 39 43 45 67 46 206l1 135 39 69c30 52 41 65 48 53 4-9 11-132 15-275zm273 167c61-90 61-91 67-177l5-87-49-59c-57-69-97-96-115-78s9 492 28 492c2 0 31-41 64-91zm279-10c1-22-37-69-56-69-12 0-14 8-9 38 3 20 6 50 6 65v29l29-24c17-13 30-30 30-39zm-909-177c39-20 97-95 75-100-7-2-38 13-69 33-43 27-56 41-56 60 0 29 4 30 50 7zm159-202c18-28 37-50 42-50s9-4 9-9-26-15-57-21c-32-7-89-23-126-37-38-13-75-22-83-19-10 4-14 25-14 85 0 44 4 82 9 85s32 1 60-4c40-7 59-6 84 4 18 8 34 15 37 15s20-22 39-49zm170-141 31-11v-134c0-107-3-136-14-140-34-13-232 91-321 169-40 35-40 35-15 40 114 25 174 42 216 62 58 28 62 28 103 14z"/>
<path d="m8310 7027c0-7 11-114 25-238 14-123 25-272 25-331 0-100 1-107 21-113 28-9 173 14 196 30 16 12 17 17 4 47-34 84-52 197-86 551l-7 67h-89c-67 0-89-3-89-13z"/>
<path d="m10413 6978c4-35 18-159 32-276 40-351 51-533 36-592-7-28-10-54-7-58 4-3 61-10 127-16 104-8 122-7 136 6 14 15 13 21-6 77-25 71-43 216-71 556-11 138-23 276-26 308l-6 57h-110-111l6-62z"/>
<path d="m11044 6913c4-71 10-287 12-482 3-269 7-357 16-363 19-11 196-10 203 2 3 5 1 27-4 47-20 76-32 244-41 578-5 187-10 341-10 343 0 1-41 2-92 2h-91l7-127z"/>
<path d="m13763 7002c30-185 31-712 3-862-9-47-11-79-5-85 14-14 229-14 229 1 0 6-7 31-15 54-20 57-20 512 0 735 8 88 15 168 15 178 0 15-12 17-116 17h-117l6-38z"/>
<path d="m8445 6323c-94-22-95-24-65-120 35-111 86-556 99-848l6-150 28-3c42-5 178 28 184 45 3 8-3 43-15 77-34 99-81 536-88 816l-5 185-62 2c-34 0-71-1-82-4z"/>
<path d="m6945 6261-30-6-7-190c-6-198-21-346-39-393-17-45-88-132-108-132-12 0-24 14-36 45-9 25-44 87-78 138-33 51-80 130-104 177l-43 85v-45c0-66 35-201 74-286l35-74h-25c-32 0-141 55-288 147-65 40-120 72-122 70s18-30 44-63c51-63 194-177 279-222 29-15 53-30 53-33 0-4-21-10-47-14-27-4-87-20-134-35-47-16-116-34-153-41-101-17-73-35 70-44 204-13 325 18 438 111 37 31 70 53 73 51 12-13-89-103-225-200-172-123-220-162-210-172 9-9 138 44 246 100 45 24 82 42 82 39 0-8-37-79-117-226l-74-136-54 5c-34 4-118-4-232-21-98-15-193-30-211-32-48-7-31-20 49-39 155-35 312-26 385 21 31 21 38 16 15-12-9-11-33-23-54-27-40-6-92-31-307-145-150-79-155-95-19-67 189 38 318 105 360 187 11 22 22 38 24 36s0-35-5-73c-13-106-20-345-10-345 19 0 100 296 100 366 0 24-7 61-16 83-15 39-15 41 10 78l26 38v-100c0-150 69-434 102-422 10 3 13 44 13 168 0 184-10 226-70 317l-35 53 24 37c50 81 141 261 203 400l65 147-7-78c-3-43-15-106-25-140-18-58-19-63-3-74 10-8 49-13 98-13h82l6 129c7 153 71 700 92 786 14 58 13 60-8 77-23 18-92 22-152 9z"/>
<path d="m1412 6168c-8-8-12-56-12-150 0-111-4-149-20-195-10-32-38-132-60-222-51-203-94-339-131-413-31-61-56-78-45-30 17 75 35 186 31 190-5 5-66-91-83-130-19-45-47-36-89 30-40 63-104 144-109 139-2-2 7-39 21-83 14-43 25-83 25-88 0-15-63 1-153 39-48 20-95 35-104 33-20-4 111-115 189-160 61-35 71-48 37-48-11 0-55-11-96-25l-76-26-51 49c-51 50-127 105-134 98-6-7 178-301 204-323 14-13 20-24 15-24-6-1-15-2-20-3s-47 34-94 77c-74 69-198 157-220 157-14 0 53-90 120-161l65-68-151-3c-92-2-151-7-151-13 1-14 121-53 201-66 78-12 146 0 193 35 17 13 42 27 56 31 20 5 12-7-37-54-33-34-57-64-52-67 16-10 105 26 130 52 13 14 28 36 34 51 8 19 28 32 90 54 43 16 80 29 82 29 11 0-64-93-114-141-81-79-150-129-178-129-13 0-39 9-57 20-45 26-163 50-249 50-77 0-88-13-33-39 51-26 198-73 246-79l47-7-34-75c-45-100-78-220-61-220s90 105 121 172c13 29 26 76 30 103 6 47 10 53 53 80 25 16 74 56 109 88 35 33 63 55 63 51-1-5-9-41-18-81-17-70-20-74-72-110-50-36-120-113-120-134 0-19 28-8 90 36 36 24 66 42 68 40 10-10-13-43-47-70-43-33-171-186-171-204 0-26 33-5 131 80l65 58 12-70c15-87 69-219 90-219 12 0 14 10 8 55-3 30-9 81-12 113l-7 57 54-59c36-39 60-57 72-55 30 6-52 159-124 231-44 45-55 62-52 81l5 24 94-49c65-33 106-48 132-48l37 1-57 52c-49 45-127 93-180 110-16 6-16 10 2 74 32 113 48 153 93 222 24 36 66 105 93 153s50 85 52 84c1-2-4-58-12-124-15-120-16-122-54-160-37-37-58-84-76-164-13-58 30-24 83 65l28 48v-68c0-55 6-84 33-148 18-44 37-84 41-89 5-6 9 29 9 79v88l25-23c30-29 31-59 10-305-24-270-34-361-62-513-17-96-22-147-15-154 12-12 160-30 186-22 16 5 17 13 11 70-4 35-4 64-1 64s13-26 22-57c16-54 16-60-2-107-25-70-28-309-3-314 12-2 19 16 32 91 9 51 17 115 18 143l1 49 23-50c29-61 30-83 8-108-16-17-18-41-18-195 0-209 13-236 41-85 9 54 20 104 24 111 3 7 16-20 29-60 73-230 115-292 104-155-14 184-41 269-128 407-19 30-35 58-35 62s40-23 89-62c48-38 96-70 105-70 15 0 15 5-6 41-38 68-95 126-152 154-66 32-79 46-99 109l-17 48 23-16c77-56 212-124 223-113 10 9-60 98-105 135-24 19-61 37-93 44-62 13-74 25-82 81-5 36 31 472 50 604 6 40 7 41 30 31 36-17 40-3 10 36-27 36-31 68-18 156 7 42 9 45 35 42 34-4 35 11 1 27-16 7-24 17-21 26 3 7 9 29 12 48 9 45-4 52-108 62-74 6-79 6-84-14-6-24-6-24-74-10l-52 11 7 76c11 119 34 226 81 372 23 74 55 180 70 235 31 111 50 146 41 75-3-25-8-85-11-135-9-126-42-380-59-454-17-73-9-108 26-115 56-12 144-15 158-6 12 7 15 44 16 207 2 197 47 754 77 942l14 83-33 14c-41 17-146 18-162 2zm-372-1089c0-8 14-10 45-6 25 4 45 3 45-1 0-18-73-129-98-149-33-28-143-73-176-73-15 0-27 7-30 18-4 10-22 44-40 75l-35 57h77c42 0 93 5 113 10 40 11 85 53 74 69-3 6 1 11 9 11 9 0 16-5 16-11zm218-298c35-17 52-31 52-43 0-10-5-18-11-18-17 0-96 58-103 75-3 9-3 15 2 13 4-1 31-14 60-27z"/>
<path d="m13823 6019c-66-15-68-21-52-167 9-83 14-243 14-462 0-293-3-342-18-394-10-32-15-61-12-65 4-3 56-8 116-9 128-4 130-3 106 86-23 85-30 337-17 586 6 120 15 237 19 260l8 41 16-39c10-22 25-60 34-86 16-45 16-47-7-78-18-25-24-48-28-112-8-139 36-381 70-388 22-4 42 160 37 305l-4 112 60-127 61-127-29-55-28-56-2-227c-1-125 1-227 5-227 12 0 44 70 69 150 30 96 33 289 6 358-9 24-12 40-7 37s20-43 35-89c31-104 74-169 189-285 93-96 121-112 110-63-15 65-48 151-77 202-30 52-135 165-209 222-22 17-44 50-61 90l-28 63 63-61c82-80 242-204 262-204 23 0 21 7-20 75-87 144-193 247-302 291-29 11-55 24-58 27-11 11-74 161-69 165 2 2 22-10 45-28 51-41 340-210 358-210 24 0-19 59-113 154-99 101-183 153-275 171l-55 12-20 65c-11 36-27 73-34 82-15 18-88 20-158 5z"/>
<path d="m11076 6007c-17-12-18-19-8-63 50-216 125-887 121-1068-4-125-1-127 108-102 43 10 83 22 89 27 9 7 7 29-7 81-11 39-19 83-19 97 0 23 3 21 26-19 14-25 45-69 70-98l44-54-7-73c-5-67-3-79 21-129 31-64 105-135 197-188 106-63 112-50 22 50-44 48-97 109-117 136-34 45-96 156-96 172 0 4 26-18 58-48 57-54 57-54 126-56 58-2 89 5 216 48 81 27 156 50 166 50 35 0 6 10-77 26-115 22-193 15-309-29l-95-36-33 32c-34 33-132 159-132 171 0 3 10 6 23 6 20 1 19 2-8 17-49 25-67 45-91 100-37 83-74 467-74 770v162l-30 16c-37 19-159 20-184 2z"/>
<path d="m4632 6001c-18-5-36-11-39-14s1-46 8-94c16-112 18-1063 2-1135-7-35-7-50 1-57 6-5 56-8 111-8l100 2-5 85c-3 47-4 299-4 560 1 365 5 494 16 557 8 45 11 88 7 94-9 15-150 22-197 10z"/>
<path d="m1814 5990c-48-15-52-26-42-120 12-122 12-973 0-1045-13-77-4-85 97-85h76v467c0 326 4 512 14 611 13 129 12 145-2 159-19 19-100 26-143 13z"/>
<path d="m10510 5982c-19-15-20-21-10-47 24-63 41-161 84-495 61-461 70-559 56-594-19-50-1-58 117-54 131 4 139 11 113 88-27 80-123 836-125 983-1 90-5 121-16 128-8 5-55 9-105 9-73 0-96-4-114-18z"/>
<path d="m3074 5478c-121-83-166-121-187-156-17-30-17-30 13-55 35-30 112-43 197-34 56 6 218 55 209 64-3 3-65 9-139 13-75 4-140 11-146 15-8 4 7 27 39 62 56 61 114 142 108 149-3 2-45-24-94-58z"/>
<path d="m6822 5224c-21-14-22-23-22-132 0-199-44-613-76-722-8-29-13-58-10-65 2-7 28-19 58-26l53-14-116-10-4-150c-5-195-61-651-101-818-9-37-14-70-12-72 8-8 109-25 149-25h39v68c0 145 53 629 87 787 35 167 37 183 24 199-10 11-9 16 4 24 14 7 17 33 20 173 3 190 44 558 75 679 12 45 20 83 18 84s-15 10-30 19c-35 22-125 23-156 1z"/>
<path d="m3088 5150c-72-9-164-36-173-51-9-13-59-11-75 4-8 6-5 1 6-13 13-15 24-46 27-79 10-88 96-251 133-251 12 0 14 7 9 33-7 29-62 189-80 230-6 15-1 17 34 17 24 0 100 21 187 53 140 50 144 52 107 59-46 8-87 8-175-2z"/>
<path d="m11845 5089c-86-12-238-80-292-131-21-21-37-28-49-24-14 5-15 4-5-8 7-8 51-34 97-57 80-40 87-42 152-36 66 6 170 37 246 73l39 19-138 5c-93 3-140 9-142 17-7 20 127 91 207 110 67 15 72 17 45 24-53 12-109 15-160 8z"/>
<path d="m2990 4986c19-21 62-50 95-66 74-34 213-70 274-70h46l-70 46c-125 83-209 117-300 122l-80 4 35-36z"/>
<path d="m13773 4886c-12-9-29-39-38-66-13-40-22-51-43-56-113-25-191-64-264-132-55-51-172-218-159-226s291 158 348 207c26 23 44 35 41 27s-23-52-43-97c-35-76-42-85-100-122-111-72-194-191-243-349-38-120-48-166-34-161 12 5 124 157 224 307 39 59 75 111 79 116 14 16-9-63-32-111-39-80-38-255 2-443 23-106 50-42 70 167 14 143 8 249-15 289-18 30-18 33 14 145 18 63 35 119 39 126 3 6 6-48 6-120 0-146 29-337 50-337 22 0 50 173 50 310 0 118-2 128-29 182l-28 56 25 55c15 29 36 80 49 113l22 59 8-40c15-70 21-638 9-800-6-82-14-167-17-188l-7-39 75 7c45 4 90 3 113-4 21-6 40-9 42-8 1 2-4 37-12 78-33 160-30 565 7 916 6 62 9 116 5 119-8 9-80 24-142 30-36 4-56 1-72-10z"/>
<path d="m10707 4754c-26-8-50-21-53-28s4-36 16-65c45-114 155-790 163-996l2-70h96c82 0 100 3 119 20 24 22 23 33-14 120-14 33-34 111-45 173-40 224-94 639-95 740-1 79-4 105-16 112-22 14-118 11-173-6z"/>
<path d="m11280 4744c-81-22-83-26-60-114 40-151 136-678 170-933 7-49 10-104 7-124-3-19-2-46 4-60 8-23 14-25 47-20 20 3 47 9 60 13s22 2 22-4-20-14-45-18c-50-7-77-27-69-49 3-8-4-54-15-103-12-49-21-104-21-122 0-19-14-61-30-96-40-81-47-144-25-219 34-119 93-205 181-266 77-53 77-35-3 84-106 157-131 214-139 315-4 53-3 82 3 82s13-22 16-49c16-135 84-262 170-316 53-34 53-35 93-223 13-61 24-138 24-170 0-88 5-90 95-62 43 13 79 29 82 36 2 6-5 26-16 45-17 29-83 269-77 276 1 2 34-4 72-12 123-26 258-14 162 14-24 7-74 29-113 49-38 19-89 44-112 56-35 16-44 26-49 53-4 19-4 36-2 38 2 3 20 0 39-5 18-6 47-10 63-10h30l-35 36c-18 19-55 47-81 61-42 23-48 31-57 72-5 25-8 47-7 49 2 1 31 8 65 14 68 13 77 22 30 32-17 3-50 14-74 25-42 19-43 20-54 87-6 38-14 82-18 99-5 28-1 26 65-36 38-37 92-79 119-93 48-26 49-28 50-74 1-62 37-145 80-182 54-47 149-91 212-97l56-5-60 40c-61 40-166 143-223 218-38 50-39 54-10 54 15 0 4 10-38 36-32 19-68 44-79 56l-20 20 35-9c50-12 121-7 165 11 21 9 39 15 41 13 2-1-3-21-11-42-8-22-14-55-15-74 0-26-3-32-16-27-25 10-5-13 26-29 19-10 37-33 50-64 55-126 181-177 376-152 164 21 164 21-26 61-187 40-272 68-304 100l-20 20 39 1 40 1-46 14c-25 8-54 23-64 34-18 20-18 21 5 45 13 14 40 55 60 92 33 62 42 70 122 117 98 58 146 92 113 80-11-4-31-7-45-8-19-1-24 3-22 17 3 16-5 13-45-14-40-28-73-38-207-66-112-22-178-41-220-62-32-17-64-31-70-31s-37 26-68 58c-42 43-57 66-61 95-6 37-5 39 17 33 12-3 56-9 97-12 41-4 80-12 88-18s50-11 95-11c67 0 91 5 136 26 56 27 120 82 141 121l12 22-29-19c-60-40-104-55-157-55-29 0-56 2-59 5s19 31 48 61c52 55 117 144 131 180 4 12-11 4-41-21-27-22-91-69-144-105-71-48-106-79-132-118l-35-53-50 7c-62 8-123 30-147 50-16 16-16 17 3 33l20 16-20 45c-50 114-166 827-174 1075l-2 70-30 2c-16 1-55-5-85-13zm191-1480c16-59 28-108 26-109-48-24-89-37-98-28-6 6-6 35 1 84 12 90 31 172 37 165 3-2 18-53 34-112zm12-210c29-5 41-13 48-32 5-14 8-26 6-28s-31-7-65-10c-60-7-62-6-62 17 0 13-3 35-7 48-5 22-4 23 18 18 13-4 41-10 62-13zm82-178c13-21 7-23-53-18-50 4-55 6-68 38-8 18-14 38-14 43 0 13 122-44 135-63z"/>
<path d="m1788 4690c-9-6-19-29-23-53-11-62-20-73-67-85-73-19-206-127-183-150 3-3 39 11 81 31 41 20 76 37 79 37s-5-24-17-52c-23-58-88-256-88-270 0-4 6-8 13-8 17 0 98 134 137 225 16 39 30 88 31 110 0 22 4 51 9 65 6 21 8 22 14 8 9-20 0-1013-9-1080l-7-48h85c106 0 111 5 94 86-9 43-11 176-10 484 2 379 8 508 29 645 6 37 4 42-20 53-32 14-124 15-148 2z"/>
<path d="m12073 4671c-23-11-65-38-93-60-57-45-69-48-130-26-38 13-41 13-30 0 10-12 9-15-4-15s-16-5-11-22c22-71 74-109 220-159 65-22 135-49 156-59 55-29 67-25 33 11-42 45-184 137-260 169-36 15-72 34-80 42-13 13-8 14 47 6 77-10 122 1 180 45 59 46 85 59 144 73l50 12-90 1c-68 0-100-4-132-18z"/>
<path d="m4643 4664c-38-9-41-23-31-134 12-126 3-1054-11-1119-14-69-12-71 98-71 53 0 102 4 109 9 11 7 12 25 2 104-16 123-8 1020 9 1116 10 52 9 67-1 77-14 13-137 26-175 18z"/>
<path d="m2230 4588c-65-14-83-34-69-78 21-69 49-329 75-680 16-227 16-575-1-625-4-11-27-32-51-47-36-22-51-41-79-100-59-123-42-130 50-20 32 39 60 70 62 68 1-1-9-44-22-94-26-98-53-160-80-182-28-24-63-103-89-206-14-54-23-101-20-104 21-20 129 187 145 275 17 101 21 106 34 40 20-101 38-155 52-155 8 0 17 8 20 17 10 25-14 168-36 219-20 45-20 46-2 114 11 38 23 94 26 125 4 31 11 53 15 48 25-27 100-786 100-1016 0-71 3-89 16-94 26-10 155 17 161 34 3 8-2 45-11 83-9 37-23 126-31 196-17 150-55 696-55 800 0 92-7 99-91 81-36-8-70-12-77-9-28 9-7 20 62 31 109 18 111 20 92 117-8 45-22 173-30 285-26 333-46 672-42 677 3 2 19-25 36-59 43-86 95-172 147-242l42-58-30-47c-51-81-71-161-76-314-5-122-4-138 10-138 28 0 95 234 115 398l7 63 33-56c24-39 31-60 24-68-6-7-18-39-27-72-21-71-16-220 12-354 17-82 34-109 47-76 13 36 28 255 22 338-7 96 6 118 23 39 17-82 50-157 100-234 63-96 171-212 193-207 14 3 9 20-31 109-65 147-115 225-187 297-54 53-105 123-90 123 3 0 35-23 71-50 92-69 260-150 312-150 24 0-23 48-121 122-113 87-202 137-259 144-39 5-51 12-62 34l-14 27 87-4c89-5 223 17 302 49 35 14 35 14-70 27-100 13-258 10-327-4-30-7-33-4-82 68-33 49-47 78-40 83 6 3 14 2 18-4 8-13 164-42 221-42 47 0 202 29 213 39 4 5-34 14-85 21s-104 17-117 22l-24 9 29 32c62 66 62 72 4 39-65-36-132-57-155-49-14 6-13 11 5 46 24 48 50 152 49 201v35l-24-30c-49-59-98-171-104-237-6-58-8-63-31-66-22-2-31 7-68 75-61 110-102 216-102 266 0 68-20 77-120 55z"/>
<path d="m483 4525c-29-8-74-25-100-39-79-40-186-113-176-119 22-14 258 46 334 84 43 21 99 67 99 80 0 14-98 10-157-6z"/>
<path d="m13837 3740c-72-14-71-11-58-257 6-120 13-238 15-263 8-82-13-637-24-680-6-24-8-46-3-50 4-4 55-5 112-3l103 6-6 41c-3 23-11 117-17 210-11 165-11 169 10 195 73 91 111 203 111 327v68l30-48c17-26 44-74 60-106l30-59-40-83c-32-67-110-321-110-359 0-25 34-3 75 49 55 70 85 158 87 259 1 40 3 73 4 73 2 0 13-33 25-72 30-103 139-368 152-368 15 0 0 196-23 284-25 100-50 145-108 197-42 38-82 94-82 114 0 4 19-10 43-30 141-121 279-226 292-223 13 2 4 22-40 93-95 151-181 226-309 270-59 19-62 22-93 85-18 36-35 78-39 93-6 27-3 25 45-21 29-28 85-67 124-88 40-20 103-55 140-76 92-53 108-48 61 21-74 110-235 243-344 285-59 23-70 33-70 66 0 54-49 70-153 50zm172-256 31-81-30-58c-16-31-30-63-30-71s-7-14-16-14c-14 0-16 10-10 73 3 39 8 109 12 155 3 46 7 82 9 80s17-40 34-84z"/>
<path d="m1214 3602c-7-4-13-74-17-187-6-182-53-634-83-813-27-157-27-157-11-171 9-7 48-13 94-14l78-2 2 70c8 243 69 841 102 1e3 11 50 16 93 13 97-6 5-136 28-159 28-4 0-13-4-19-8z"/>
<path d="m10938 3571c-43-4-82-11-88-17s-6-22 0-44c9-33 0-149-18-240l-8-35-74-2c-46-1-109-12-163-27-143-42-234-32-328 35-49 35-45 13 8-38 92-90 221-132 348-114 75 11 132 34 168 68 15 15 27 22 27 16 0-25-51-183-79-247l-31-68-38 7c-20 3-120 10-222 14-145 6-199 13-250 29-35 12-66 20-68 17-5-5 157-124 196-143 17-9 32-19 32-23 0-24-188-37-292-20-41 7-46 6-36-6 18-22 136-79 203-98 96-28 141-19 293 62 72 39 132 67 132 62s6-9 14-9 36 42 63 95c34 66 50 90 56 80 4-8 11-60 14-114l6-100-45-11c-68-17-111-58-144-137-38-92-68-136-115-169-38-26-50-44-28-44 20 0 113 51 167 92 47 35 132 136 145 170 2 7 7 11 10 8 2-3-3-34-12-70-15-57-25-74-83-133-37-38-108-96-159-130s-95-68-97-76c-4-11 0-12 14-6 11 4 54 18 98 30 43 13 105 36 137 52s59 25 59 19c0-12-35-140-45-168-13-32 19-20 62 25 53 54 93 136 100 202 7 68 0 97-36 137-27 31-28 36-20 88 11 80 11 233-1 329-10 74-9 90 9 145 25 73 60 239 61 281 1 44 14 14 34-75 61-284 136-727 136-804 0-70 14-85 80-85 44-1 121 27 134 47 3 5-5 34-18 64-47 105-147 684-174 998-8 98 1 92-134 81z"/>
<path d="m1776 3371c-15-16-15-27-6-90 13-78 10-1094-3-1121-14-30 10-44 80-48 93-5 98 1 82 110-15 100-6 912 12 1051 13 108 7 116-87 117-47 0-65-4-78-19z"/>
<path d="m12539 3335c-24-19-91-55-149-81-136-60-154-74-187-145-15-32-34-59-41-59-11 0-12-3-3-13 7-10 51-16 141-21 155-7 156-7 299 107 51 41 121 91 155 111 77 46 50 48-75 6-164-55-329-153-329-197 0-11-12-13-52-11-28 2-53 8-54 13-2 6 31 27 74 47 116 56 161 100 257 251 23 35 17 34-36-8z"/>
<path d="m4609 3290c-9-5-42-68-75-140-48-108-71-145-132-215-40-47-79-85-87-85s-17 12-21 28c-13 61-31 86-128 179-56 54-127 127-159 163l-58 65 25-57c32-74 94-181 146-249 37-49 39-54 20-57-11-2-44 3-73 12-28 8-90 20-137 26s-96 13-110 16c-25 5-25 5-5-15 37-36 288-131 380-143l83-11-107-78c-58-43-116-79-128-79-15 0-28 10-37 28-19 36-107 118-181 169-60 40-138 83-152 83-12 0 239-253 285-287l44-32-41-20c-53-28-67-27-108 9-19 17-103 65-186 106l-152 76 50-52c28-29 78-73 112-100l62-47-161-7c-208-8-237-22-109-52 32-7 110-16 174-20 106-6 120-5 167 15 29 12 54 20 56 18 3-2-57-64-132-136-75-73-133-135-129-139 3-4 48 15 99 41 123 62 217 148 244 220 18 48 26 56 98 100 120 74 250 173 338 257 46 44 76 67 73 55-3-11-22-73-42-137-32-104-39-118-58-118-38-1-133-45-199-93-88-64-144-114-137-122 7-7 151 51 253 102l69 35-7-29c-16-62-29-77-76-85-83-14-321-141-302-160 15-15 178 29 251 67 36 19 70 35 77 35 6 0 25 30 42 67 34 72 34 72 46-32 8-65 66-307 77-319 15-17 22 47 16 163-7 130-27 210-64 260l-26 33 63 197c59 185 147 411 161 411 20 0 23-1166 3-1296l-6-41 103-6c57-4 107-3 110 1 4 4 2 39-4 77-17 108-13 1070 5 1213 7 63 10 119 5 127-6 12-29 15-100 15-51 0-99-5-108-10z"/>
<path d="m9156 3005c-8-35-35-120-72-225-17-49-27-99-28-145l-2-70-55-3c-64-4-201 14-244 33-33 13-127 133-208 266-26 41-58 86-72 99-23 21-30 23-102 16-92-7-147-31-151-65-2-14 5-56 17-95 51-175 129-825 140-1166l6-195 40-3c53-5 174 16 203 35 28 17 27 35-7 148-18 58-42 203-77 465l-6 44 70-65c38-37 83-71 101-77 31-11 31-10 57 40 14 28 34 87 43 132l18 81 8-45c12-74 44-146 97-225l50-74-31-51c-17-28-31-52-31-55 0-12 25-2 67 26l45 31 29-21c42-31 54-26 30 13l-21 34 35 52c35 52 75 162 75 205 0 13 5 27 10 30 6 4 10-11 10-38 0-95 52-214 131-301 66-72 239-189 239-162 0 8-223 352-254 391-22 27-26 37-13 32 71-27 136-39 192-35 66 6 101 21 153 65l34 28-106-3c-115-4-207 10-226 34-11 12-6 14 26 14 73 1 195 28 259 59 36 16 65 31 65 33s-33 3-72 4c-40 0-138 4-218 8-144 8-185 4-256-25-28-11-36-10-59 5l-27 18 99 48c115 57 186 110 225 165 26 37 81 175 73 183-2 2-22-17-46-43-57-62-147-132-239-186-41-24-92-61-114-83-32-32-42-37-60-28-24 11-206 170-206 180 0 4 57 7 127 7 315 1 378 26 432 169 24 64 41 243 23 232-7-4-12-13-12-21 0-28-100-212-134-244-49-48-66-38-54 31 12 60 5 260-10 298l-10 25-6-30zm-547-294c46-58 104-127 128-152 48-50 62-90 63-175 0-43-4-54-30-79-27-26-48-75-64-147-9-39-30-36-106 15l-65 42-12 95c-11 89-26 281-38 480l-5 85 23-29c12-16 60-77 106-135zm332-326c54-52 106-95 116-95 11 0 39-20 63-45l44-45-31-32c-17-18-45-59-63-90-35-64-55-72-72-30-46 112-101 213-132 240-32 28-35 35-42 111-5 63-4 81 6 81 7 0 57-43 111-95z"/>
<path d="m6190 2659c32-87 81-158 175-259 100-106 134-170 89-170-37 0-90 55-129 132l-35 71v-56c0-123 78-235 190-272 28-9 50-18 50-21 0-9-80-43-150-63-161-48-374-144-367-165 7-20 206-10 278 14 75 26 179 97 212 145 13 18 50 54 83 78 62 45 190 186 295 323l59 76v-98c0-215-61-825-95-953-8-30-12-58-10-61 8-13 93-30 150-30 48 0 56-2 53-17-3-16-15-18-104-15l-101 4-6-154c-6-151-23-305-92-833-20-148-37-283-38-300l-2-30 180-6 2 31c3 46 92 740 108 850 12 80 29 162 71 350 5 21 11 10 39-61 39-102 74-171 128-259 50-80 168-242 214-293l35-39-23-24c-30-32-44-30-78 9-31 34-117 78-370 184-28 12 23-58 81-112 64-60 185-125 231-125 44 0 27-11-103-65-63-26-119-51-124-56-31-28 147-17 265 17 78 22 108 49 124 109l12 50 22-42c11-23 39-56 61-74l40-32v-209-208h88 87l-7 92c-3 51-7 132-7 179l-1 87 98 7c53 4 101 10 106 12 5 3-23 14-61 23-38 10-86 25-107 34l-38 16 7 184c4 101 13 217 20 257 17 101 15 103-106 92l-93-8-7-40c-4-23-15-67-24-99-25-84-42-74-85 52-19 56-38 102-42 102-12 0-20-128-13-198 7-61 10-70 47-104 41-38 43-58 5-58-24 1-43 24-154 190-70 104-133 211-133 223 0 4 21 7 48 7 106 0 255 140 297 279 7 22 2 20-41-16-57-48-245-176-250-171-2 2 8 31 21 65 32 78 49 231 38 338l-9 80-22-75c-124-408-128-414-173-286-26 72-27 81-24 268 4 242 46 667 92 921 22 123 15 137-69 137-82-1-139-14-158-38-8-11-53-72-100-136-84-115-120-143-120-93-1 35-40 122-113 247-56 96-67 110-67 85 0-32 50-249 69-297 9-24 8-28-7-28-37 0-80 62-121 175-21 61-45 124-52 140-13 29-14 27-17-47-2-66-6-78-20-78-9 0-61 43-114 95s-99 95-102 95 3-23 14-51zm473-437c15-7 13-12-18-42-19-18-37-31-41-28-3 4-9 23-14 42-8 35-7 36 24 35 17 0 39-4 49-7zm947-1527c0-138 0-138-65-111l-34 15 23 53c13 29 32 79 42 111 10 31 21 57 26 57 4 0 8-56 8-125z"/>
<path d="m13824 2463c-12-2-29-12-38-22-14-16-15-32-7-129 6-62 13-198 17-304 8-216 11-205-66-227-92-27-246-115-335-194-36-32-38-36-21-43 41-16 303 88 371 147l34 31-15-54c-20-67-25-72-76-88-115-34-215-112-292-229-37-55-96-176-96-196 0-19 31 6 97 76 63 66 168 160 267 239 19 15 19 14 1-20-10-19-27-48-38-64-12-16-17-31-11-33 5-2 8-43 6-95-2-65 4-129 20-212 33-171 51-168 71 11 13 119 1 235-32 303l-19 40 43 75c23 42 53 104 66 138l24 62 3-50c3-45-8-222-24-396-8-80-9-80 116-72l92 6-6 31c-31 150-40 702-17 981 7 88 15 162 17 164 9 10 144-170 144-194 0-7-16-36-35-65-54-80-115-298-115-411 0-43 30-14 68 69 74 161 94 217 106 292l12 75 27-68 28-69-25-62c-37-91-49-214-35-344 11-108 22-140 38-113 14 22 42 177 49 276l8 90 13-40c34-103 176-325 208-325 10 0 12 6 8 23-73 240-116 330-182 385-36 31-47 49-74 126-17 50-33 97-36 105s23-6 58-31c113-80 296-188 318-188 20 0 18 6-25 63-26 34-84 98-128 142-98 97-181 145-252 145-48 1-50 1-92 61-24 34-40 60-35 58 4-2 31-16 60-31 47-25 362-118 399-118 27 0 4 21-102 90-159 105-288 160-375 160-15 0-32 7-39 15-12 15-91 19-146 8z"/>
<path d="m7925 2448c-2-7-6-218-9-468s-10-495-15-545c-7-59-6-93 0-100 6-5 42-10 82-10h72l-3 155c-4 214 14 767 29 867 16 107 11 113-83 113-46 0-70-4-73-12z"/>
<path d="m648 2383c19-36 93-94 156-124 70-33 148-39 197-13 29 14 30 14 20-3-22-37-37-49-79-61-45-14-282-167-282-183 0-12 8-11 71 7 120 35 210 98 281 195 14 19 17 21 18 7 0-10-25-46-57-80-31-35-77-95-102-133-51-78-127-242-117-252 17-17 214 206 256 289 25 51 30 74 30 132 1 49 5 77 16 91 15 18 16 9 11-115-8-187-80-788-113-941-5-24-2-28 31-39 21-7 61-13 89-14l51-1 7 134c12 234 88 868 112 936 5 13 10-1 40-109 23-79 24-92 11-106-8-9-24-38-36-65-18-41-23-74-27-182-4-114-2-133 10-133 18 0 61 146 80 266 6 40 14 72 17 69 2-3 8-54 12-113 5-77 15-128 34-182 35-95 102-230 115-230s13 8-5 120c-19 116-66 260-106 321-16 25-29 49-29 52 0 4 27-11 60-34 68-46 217-109 257-109 27 1 24 4-38 63-82 77-156 121-233 142-33 8-63 18-67 22-14 15-71 238-74 289-1 29-5 56-9 62-7 13-98 42-129 42-28 0-57-28-57-56 0-32-16-47-41-41-13 3-55 15-94 26-59 17-161 42-274 68-21 5-22 4-13-14z"/>
<path d="m11216 2374c-16-9-55-19-88-21-32-3-61-9-63-13-3-4 9-45 26-91s48-151 69-234c35-136 137-627 157-750 8-47 10-50 41-53 41-4 132 22 162 46l22 18-25 50c-47 93-134 377-125 405 2 5 27-27 56-71 29-43 75-102 102-130 41-42 48-55 40-70-15-29-12-140 6-201 31-104 78-174 136-205 36-19 162-64 178-64 33 0-36 48-90 63-82 23-103 56-135 213-14 65-32 134-40 153-23 48-10 50 35 6 27-26 37-42 30-49-26-26-1-128 42-174 30-31 102-72 128-72 20 0 19 2-8 25-16 14-48 60-71 102-23 43-49 88-58 101-15 21-15 22 3 15 16-6 17-4 7 8-12 14 62-5 165-42 36-14 28-39-12-39-19 0-38-5-41-10-11-18 23-58 60-71 39-15 43-23 53-111 7-60 8-63 35-66 33-4 127 27 134 44 2 7-3 28-11 49-9 21-16 41-16 46s46 9 103 9l102 1-67 29c-36 15-92 36-122 46-94 30-72 42 77 42 101-1 149 4 207 20l75 20-58 1c-83 1-187 25-301 69l-100 37-12 50c-7 27-10 53-6 56 7 6 125 30 222 45l44 6-36 19c-53 27-144 49-204 49-30 0-55 5-61 13-14 19-35 110-26 117 79 65 148 129 163 151 18 24 12 22-62-22-84-51-108-58-126-36-16 20-62 239-62 299 0 30-6 62-13 72-13 18-16 18-73 1-58-17-94-39-94-58 0-6 11-33 25-62 32-68 99-291 92-308-3-9-48-20-129-31-79-11-143-26-180-43-69-31-74-28-112 56-45 100-74 240-103 491-9 72-19 80-67 54zm628-656c14-55 11-58-66-59-78 0-206-13-249-24-22-6-29-2-48 28-27 44-27 49 5 37 14-6 67-10 117-9 71 0 105 5 152 23 77 30 81 30 89 4zm-165-153c46-8 110-15 143-15 54 0 59-2 68-26 6-14 10-29 10-34 0-4-38-10-84-11-64-3-89-8-104-22-26-24-39-17-122 69l-65 67 35-7c19-4 73-13 119-21z"/>
<path d="m6020 2150c57-50 117-74 198-78 85-5 152 4 177 22 16 12 13 15-36 39-46 21-73 26-184 31-71 4-143 9-160 12l-30 5 35-31z"/>
<path d="m7655 2101c-89-7-85 1-64-96 18-85 19-780 1-885-16-95-11-100 103-100 102 0 128 14 115 63-19 68-30 249-30 481 0 288 12 458 35 493 13 19 14 27 4 39-12 14-22 15-164 5z"/>
<path d="m1778 1585c3-318 0-531-7-596-6-56-9-105-5-108 3-3 40-6 82-6h77l-2 50c-11 377-13 566-6 645l8 95 33-123c33-123 33-124 15-160-26-53-33-279-8-288 9-4 18-4 21-2 5 6 20 91 30 171 3 27 8 47 10 44 2-2 9-51 14-109 13-147 89-358 132-366 14-3 14 6 2 80-25 156-45 226-90 314-44 87-49 111-17 81 35-31 197-137 210-137 25 0 13 19-64 100-51 54-99 93-138 114l-60 31-39 150c-38 145-39 156-40 323-1 141-4 175-16 182-8 6-44 10-80 10h-65l3-495z"/>
<path d="m2435 2073c-11-2-30-6-42-8-15-4-23-15-28-37-4-18-16-63-27-99-20-62-24-68-58-78-52-15-123-65-175-123-46-51-56-78-31-78 8 0 55 27 106 60 51 34 90 57 88 53s-20-41-41-80c-37-72-89-231-80-245 29-48 118 135 138 282 12 93 24 93 26 0 2-106 10-144 30-148 21-4 29 35 29 137 0 58-5 84-20 109l-20 32 22 67c20 60 23 64 29 40 23-84 99-805 99-933 0-112 1-114 64-113 28 1 62 4 76 8 30 8 31 26 6 146-23 115-76 642-83 830-3 88-10 166-16 173-9 12-51 14-92 5z"/>
<path d="m4625 1826c-22-16-22 9-5-486 16-473 10-1236-11-1320-3-12 13-15 100-18l104-3-7 23c-25 88-28 298-16 968 7 382 14 696 15 698 2 2 11-23 20-55 21-72 87-236 168-412l60-134-25-46c-44-78-58-144-58-273 0-68 4-118 9-118 11 0 86 222 96 285 14 81 14 81 74-27l58-103-26-50c-23-45-25-60-24-145 3-120 23-225 43-225 19 0 49 162 50 275 0 63 3 80 11 68 5-10 18-18 27-18 10 0 22-4 28-9 35-34 282-111 353-111h36l-55 35c-30 19-101 58-158 87-91 46-110 53-169 54l-66 1-49 83c-35 59-44 81-31 76 80-32 177-57 237-62l71-6-54 37c-80 56-175 96-242 104-32 4-63 12-68 17-13 14-201 444-201 461 0 1 10 3 23 3 21 0 21 1-5 23-33 26-61 88-100 216-15 52-33 100-39 107-16 19-148 19-174 0z"/>
<path d="m5525 1616c-13-16-56-35-123-55-141-44-248-94-287-136l-33-34-43 31-44 31 40-43c52-55 72-65 99-52 11 6 42 18 67 27s101 54 169 100 126 82 128 81c2-2-21-51-52-108-30-57-60-128-67-158-6-30-13-56-14-58-2-2-18 4-37 14l-33 17 21-24c11-13 26-46 32-73 7-28 32-76 57-110 62-84 170-199 183-195 17 6-46 145-109 239-32 47-54 86-49 88s32-12 59-32c90-62 225-71 415-28l79 18-163 24c-89 14-169 30-178 36-13 9-6 17 39 47 50 33 161 137 147 137-4 0-39-18-80-39-76-42-281-107-299-95-7 4-5 12 4 22 25 29 55 96 70 158 14 53 32 195 25 193-2 0-12-11-23-23z"/>
<path d="m8506 1430-110-16-31-124c-35-142-36-142-118-112-29 11-100 30-157 42-58 13-112 26-120 30s-33 10-55 14l-40 6 45-41c79-73 245-139 350-139 64 0 50-29-28-58-57-22-97-49-181-125-69-63-115-116-108-124 17-16 185 62 260 119 43 35 47 22 11-39-14-24-34-70-45-101-21-61-61-273-53-282 14-13 112 161 144 256 12 33 20 85 21 123l1 66 18-62c33-113 114-263 142-263s-29 244-84 357l-40 82 36 107c20 59 36 113 36 121 0 29 18 11 24-24 29-164 122-786 148-990l33-253h103c56 0 102 4 102 9s-6 40-14 78c-21 97-83 522-111 763-18 144-25 256-25 378 0 168-6 205-32 214-7 2-62-3-122-12z"/>
<path d="m13569 1307c-69-82-109-153-144-258-38-117-42-139-21-139 19 0 142 175 165 236 17 44 45 194 37 201-1 1-18-17-37-40z"/>
<path d="m11475 1210c-27-10-72-19-98-19l-48-1 6-62c3-35 8-82 11-105 5-38 3-43-14-43-11 0-25 7-32 15-7 9-49 34-93 57s-101 63-128 90-49 46-49 42c0-3 14-32 31-64 56-105 195-220 267-220 18 0 23-4 18-16-3-9-6-24-6-35 0-26-25-24-63 5-18 14-73 41-123 60-146 55-193 84-276 165-84 83-86 81-31-19 87-157 278-291 419-294 38 0 63-5 60-11-2-5-11-36-20-67-10-36-22-58-31-58-8 0-38 9-67 21-50 20-60 20-183 10-136-11-225-29-228-46-1-6 27-13 63-17 36-3 100-13 142-22 102-21 202-21 255 2 39 15 45 22 63 77 34 106 43 157 49 305l6 145 29-60c15-33 61-159 102-280s120-343 176-492l103-273h87 88l-36 72c-112 223-316 825-353 1043-23 133-15 125-96 95z"/>
<path d="m12644 1151c-33-15-97-58-142-95-63-51-88-66-113-66-18 0-60-8-93-17l-59-17-42 46-42 47-74-23c-45-14-75-28-77-38-2-8 10-48 26-89 48-121 90-267 172-589l76-305 69-3c66-3 67-3 61 20-26 93-225 902-230 937-6 38-5 42 8 32 9-7 31-37 51-67s41-54 46-54c6 0 48-35 93-79 75-72 87-80 142-91 62-12 65-14 108-44 33-23 43-16 22 17l-16 24 82 17c46 9 101 16 123 16 23 0 35 4 30 9-17 16-114 31-199 31-79 0-86 2-135 35-28 20-65 38-81 41-49 10-57 30-18 50 25 14 66 20 163 24 129 6 131 8 23 30-85 17-88 27-27 102 29 34 68 77 88 95s34 32 31 33c-3 0-32-13-66-29z"/>
<path d="m955 1120c-3-5-10-60-15-122-24-275-110-896-136-980-5-16 3-18 81-18 52 0 84 4 80 10-6 9 72 644 101 815 8 50 24 130 35 178 21 84 21 89 4 107-14 16-31 20-81 20-35 0-65-4-69-10z"/>
<path d="m13785 1114c-9-10-14-26-11-37s10-153 17-317c13-301 4-640-20-717-5-17-7-34-3-37 3-3 51-6 107-6h103l-15 68c-12 54-14 148-11 487 2 231 7 426 11 433 6 8 17-4 36-40 26-49 28-59 23-139-4-75 0-101 26-195 36-126 75-227 91-232 7-2 11 15 11 50-1 70-16 238-25 263-4 12 9 3 32-22 46-51 275-253 286-253 23 0-51 143-119 232-71 92-142 156-205 185-42 19-61 35-73 60-9 18-14 33-11 33s44-16 92-36c87-36 284-84 345-84 31 0 29 2-44 53-132 92-276 147-384 147-55 0-64 8-64 56 0 55-14 64-100 64-60 0-83-4-95-16z"/>
<path d="m2563 877c-74-17-77-23-58-96 13-49 95-712 95-766 0-12 14-15 71-15 38 0 68 4 65 8-10 17-68 576-74 722-8 176-2 168-99 147z"/>
<path d="m1744 780c-15-33-32-60-39-60-6 0-25 7-41 15-17 8-63 21-104 30-41 8-99 22-129 31-29 8-55 13-57 11-6-6 85-71 136-97 22-11 71-27 108-33l67-13-47-27c-86-51-143-133-203-293-14-36-25-68-25-70 0-16 24 6 76 69 76 91 95 119 148 212l43 75 7-137c9-185 32-208 55-56 15 103 14 177-5 216-15 31-15 35 8 72l23 40 6-60c4-33 7-205 8-382l1-323h64 64l5 367c3 211 9 385 15 408 15 56 4 65-84 65h-73l-27-60z"/>
<path d="m11265 474c-34-58-73-108-122-154-39-38-69-71-65-74 11-12 38-5 99 23 106 50 183 137 183 206 0 28-25 85-38 85-4 0-30-39-57-86z"/>
</g>
</g>
</svg>
